<svg width="27" height="27" viewBox="0 0 27 27" fill="none" xmlns="http://www.w3.org/2000/svg">
<g clip-path="url(#clip0)">
<path d="M9.11282 7.13356H16.4249C21.3607 7.13356 25.3619 11.1348 25.3619 16.0705C25.3619 21.0063 21.3607 25.0075 16.4249 25.0075H9.11282V20.1328H16.4249C18.6684 20.1328 20.4872 18.3141 20.4872 16.0705C20.4872 13.827 18.6684 12.0083 16.4249 12.0083H9.11282V16.883L0.988281 9.57092L9.11282 2.25883V7.13356Z" fill="#989898"/>
<path d="M16.4244 25.82H9.11231C8.66358 25.82 8.29986 25.4563 8.29986 25.0076V20.1328C8.29986 19.6841 8.66358 19.3204 9.11231 19.3204H16.4244C18.2192 19.3204 19.6742 17.8654 19.6742 16.0706C19.6742 14.2758 18.2192 12.8207 16.4244 12.8207H10.1248C10.0143 12.8207 9.92476 12.9103 9.92476 13.0207V16.883C9.92548 17.3318 9.56236 17.6961 9.11363 17.6968C8.91209 17.6972 8.71756 17.6225 8.56797 17.4875L0.443426 10.1754C0.109609 9.8756 0.0819852 9.36193 0.381832 9.02806C0.401229 9.00643 0.421794 8.98586 0.443426 8.96646L8.56797 1.65437C8.90107 1.35371 9.4148 1.38007 9.71546 1.71317C9.85053 1.86282 9.92512 2.0573 9.92476 2.25884V6.12111C9.92476 6.23157 10.0143 6.32111 10.1248 6.32111H16.4244C21.8089 6.32111 26.1738 10.6861 26.1738 16.0706C26.1738 21.4551 21.8089 25.82 16.4244 25.82ZM9.92476 23.9951C9.92476 24.1056 10.0143 24.1951 10.1248 24.1951H16.4244C20.9115 24.1951 24.5489 20.5577 24.5489 16.0706C24.5489 11.5835 20.9115 7.94602 16.4244 7.94602H9.11231C8.66358 7.94602 8.29986 7.58229 8.29986 7.13357V4.53262C8.29986 4.35948 8.09479 4.26813 7.96608 4.38395L2.3668 9.42226C2.27851 9.50171 2.27851 9.64015 2.3668 9.7196L7.96608 14.7579C8.09479 14.8737 8.29986 14.7824 8.29986 14.6092V12.0083C8.29986 11.5596 8.66358 11.1958 9.11231 11.1958H16.4244C19.1166 11.1958 21.2991 13.3783 21.2991 16.0706C21.2991 18.7628 19.1166 20.9453 16.4244 20.9453H10.1248C10.0143 20.9453 9.92476 21.0348 9.92476 21.1453V23.9951Z" fill="black"/>
</g>
<defs>
<clipPath id="clip0">
<rect width="26" height="26" fill="white" transform="translate(0.174316 0.632507)"/>
</clipPath>
</defs>
</svg>
